<svg t="1683205956582" class="icon" viewBox="0 0 1024 1024" version="1.1" xmlns="http://www.w3.org/2000/svg" p-id="2293" width="32" height="32"><path d="M861.653725 525.142899c0 220.582752-178.82422 399.416367-399.416367 399.416367-220.582752 0-399.406972-178.82422-399.406973-399.416367 0-220.592147 178.82422-399.416367 399.406973-399.416367s399.416367 178.82422 399.416367 399.416367" fill="#F5F0FF" p-id="2294"></path><path d="M840.553688 136.060477a11.310972 11.310972 0 0 1-11.310972-11.310972v-25.722129a11.310972 11.310972 0 1 1 22.621945 0v25.722129c0 6.247339-5.073028 11.310972-11.310973 11.310972M840.553688 200.873101a11.310972 11.310972 0 0 1-11.310972-11.310973V163.84a11.310972 11.310972 0 1 1 22.621945 0v25.722128c0 6.247339-5.073028 11.310972-11.310973 11.310973M832.32411 144.29945c0 6.237945-5.073028 11.301578-11.310972 11.301578h-25.722129a11.310972 11.310972 0 1 1 0-22.621945h25.722129c6.247339 0 11.310972 5.073028 11.310972 11.310972M897.127339 144.29945c0 6.237945-5.063633 11.301578-11.310972 11.301578h-25.722128a11.310972 11.310972 0 1 1 0-22.621945h25.722128c6.247339 0 11.310972 5.073028 11.310972 11.310972" fill="#7BD721" p-id="2295"></path><path d="M99.130716 280.125064a15.256661 15.256661 0 1 1-30.513322 0 15.256661 15.256661 0 0 1 30.513322 0" fill="#5C3290" p-id="2296"></path><path d="M59.748991 508.74011a16.975853 16.975853 0 1 1 0-33.951706 16.975853 16.975853 0 0 1 0 33.951706m0-49.377468a32.401615 32.401615 0 1 0 0 64.793835 32.401615 32.401615 0 0 0 0-64.793835" fill="#00B1FF" p-id="2297"></path><path d="M256.216073 507.932183V780.964404a80.05989 80.05989 0 0 0 47.949505 73.342825l219.314495 96.058716c20.48 8.962349 43.778349 8.962349 64.248955 0l219.323889-96.058716a80.05989 80.05989 0 0 0 47.949505-73.342825V507.932183H256.216073z" fill="#FFB600" p-id="2298"></path><path d="M256.216073 507.932183V780.964404a80.05989 80.05989 0 0 0 47.949505 73.342825l173.262679 75.888734c17.586495 4.838165 36.356697 3.90811 53.266789-3.504146l219.333284-96.058716a80.05989 80.05989 0 0 0 47.949505-73.342826V507.932183H256.216073z" fill="#FFD500" p-id="2299"></path><path d="M543.668844 247.225541L183.803303 429.112367c-28.352587 14.326606-27.901651 54.976587 0.751559 68.683156l359.874936 172.107156a38.273174 38.273174 0 0 0 33.359853-0.159707l350.931377-172.107155c28.202275-13.838092 28.653211-53.886826 0.760954-68.344955l-350.940771-181.877431a38.235596 38.235596 0 0 0-34.872367-0.18789" fill="#0091F1" p-id="2300"></path><path d="M834.343927 429.300257l-321.357505-166.564404-329.183119 166.376514c-28.343193 14.336-27.901651 54.976587 0.751559 68.673761l328.43156 157.075964L833.573578 497.645211c28.21167-13.828697 28.653211-53.877431 0.75156-68.33556" fill="#00B1FF" p-id="2301"></path><path d="M918.349505 732.507596a31.790972 31.790972 0 0 1-31.790973-31.781578V560.954716a31.790972 31.790972 0 1 1 63.581945 0v139.752513a31.790972 31.790972 0 0 1-31.790972 31.800367" fill="#F4731C" p-id="2302"></path><path d="M909.697174 530.920514c-13.255633 3.832954-23.148037 15.557284-23.148036 30.043596v139.752514c0 14.486312 9.892404 26.210642 23.148036 30.043596 13.246239-3.832954 23.148037-15.557284 23.148037-30.043596V560.96411c0-14.486312-9.892404-26.210642-23.148037-30.043596" fill="#FF781D" p-id="2303"></path></svg>